<?xml version="1.0" encoding="UTF-8"?>
<svg version="1.1" xmlns="http://www.w3.org/2000/svg" width="64" height="30">
<path d="M0 0 C0.75087891 -0.02384766 1.50175781 -0.04769531 2.27539062 -0.07226562 C6.19840752 -0.06191466 8.18510295 0.32269563 11.5625 2.46875 C14.40791102 6.87024517 14.26193496 10.49178958 14.125 15.625 C14.13595703 16.52283203 14.14691406 17.42066406 14.15820312 18.34570312 C14.08553161 24.86191574 14.08553161 24.86191574 11.65234375 28.12109375 C7.87349298 30.72744129 5.34788695 30.7547255 0.75 30.8125 C-1.08498047 30.85117187 -1.08498047 30.85117187 -2.95703125 30.890625 C-6.94402391 30.5147469 -9.58744485 29.41255515 -12.4375 26.5625 C-12.74501719 22.96688181 -12.71590593 19.3571521 -12.75 15.75 C-12.77900391 14.73873047 -12.80800781 13.72746094 -12.83789062 12.68554688 C-12.9005818 5.38925861 -12.9005818 5.38925861 -10.9453125 1.8984375 C-7.34604825 -0.01892757 -3.97869088 -0.05776067 0 0 Z M-8.4375 5.5625 C-5.17348112 8.82651888 -0.90877047 8.52831598 3.5625 8.5625 C7.03768686 7.77126287 7.03768686 7.77126287 9.5625 6.5625 C6.64256501 3.64256501 4.0860504 3.4083984 0.125 3.375 C-1.01775391 3.35373047 -1.01775391 3.35373047 -2.18359375 3.33203125 C-4.67097315 3.58637334 -6.28558106 4.32232804 -8.4375 5.5625 Z M-8.4375 10.5625 C-8.1075 11.5525 -7.7775 12.5425 -7.4375 13.5625 C-4.52663331 14.5327889 -2.53526315 14.72717847 0.5 14.75 C1.78197266 14.77126953 1.78197266 14.77126953 3.08984375 14.79296875 C5.70159303 14.54953556 7.31750652 13.8803268 9.5625 12.5625 C9.2325 11.9025 8.9025 11.2425 8.5625 10.5625 C7.60150391 10.68818359 7.60150391 10.68818359 6.62109375 10.81640625 C1.33174686 11.43914605 -3.20795499 11.58567185 -8.4375 10.5625 Z M-8.4375 16.5625 C-8.4375 17.5525 -8.4375 18.5425 -8.4375 19.5625 C-5.22976388 20.63174537 -2.80765182 20.72934956 0.5625 20.75 C2.1403125 20.77126953 2.1403125 20.77126953 3.75 20.79296875 C6.77008688 20.77430926 6.77008688 20.77430926 9.5625 18.5625 C9.2325 17.9025 8.9025 17.2425 8.5625 16.5625 C7.5725 16.8925 6.5825 17.2225 5.5625 17.5625 C3.91878509 17.65579934 2.27135323 17.69245144 0.625 17.6875 C-0.65697266 17.69136719 -0.65697266 17.69136719 -1.96484375 17.6953125 C-4.26430852 17.57180254 -6.23390348 17.20670687 -8.4375 16.5625 Z M-8.4375 23.5625 C-8.4375 24.2225 -8.4375 24.8825 -8.4375 25.5625 C-5.24443695 26.62685435 -2.79306004 26.76315353 0.5625 26.8125 C2.1403125 26.85117187 2.1403125 26.85117187 3.75 26.890625 C6.93113868 26.8142644 6.93113868 26.8142644 9.5625 23.5625 C3.6225 23.5625 -2.3175 23.5625 -8.4375 23.5625 Z " fill="#DC7C3E" transform="translate(15.4375,-0.5625)"/>
<path d="M0 0 C0 1.32 0 2.64 0 4 C-0.99 4.495 -0.99 4.495 -2 5 C-1.34 5 -0.68 5 0 5 C0.5775 4.175 1.155 3.35 1.75 2.5 C4 0 4 0 7.0625 -0.4375 C10 0 10 0 13 2 C13.33 1.34 13.66 0.68 14 0 C15.32 0 16.64 0 18 0 C18 3.3 18 6.6 18 10 C18.99 10 19.98 10 21 10 C21 11.32 21 12.64 21 14 C18.125 14.125 18.125 14.125 15 14 C14.34 13.34 13.68 12.68 13 12 C11.02 12.99 11.02 12.99 9 14 C9 14.66 9 15.32 9 16 C5.64404172 15.40072174 3.62198774 14.15377564 1 12 C0.34 12.66 -0.32 13.32 -1 14 C-4.625 14.125 -4.625 14.125 -8 14 C-8 12.68 -8 11.36 -8 10 C-7.01 9.67 -6.02 9.34 -5 9 C-5.495 8.608125 -5.99 8.21625 -6.5 7.8125 C-8.45593143 5.44908285 -8.24207973 3.98564997 -8 1 C-5.29120665 -0.35439668 -2.99066732 -0.06501451 0 0 Z M6 4 C5.67 5.65 5.34 7.3 5 9 C6.65 9 8.3 9 10 9 C9.67 7.35 9.34 5.7 9 4 C8.01 4 7.02 4 6 4 Z " fill="#DC7E41" transform="translate(40,8)"/>
<path d="M0 0 C2.45873768 0.14058476 4.91685175 0.28722999 7.375 0.4375 C8.07367188 0.47681641 8.77234375 0.51613281 9.4921875 0.55664062 C14.7734375 0.88671875 14.7734375 0.88671875 17 2 C17.40729228 4.32156597 17.74438677 6.6568787 18 9 C16.0625 9.5625 16.0625 9.5625 14 10 C13.67 9.67 13.34 9.34 13 9 C10.81707226 8.76518307 8.62796826 8.58636677 6.4375 8.4375 C5.23996094 8.35371094 4.04242188 8.26992188 2.80859375 8.18359375 C1.88175781 8.12300781 0.95492188 8.06242187 0 8 C0.33 7.34 0.66 6.68 1 6 C2.26457031 6.01740234 2.26457031 6.01740234 3.5546875 6.03515625 C4.65039062 6.04417969 5.74609375 6.05320312 6.875 6.0625 C8.51082031 6.07990234 8.51082031 6.07990234 10.1796875 6.09765625 C12.95177546 6.19744303 12.95177546 6.19744303 15 5 C12.22957891 2.22957891 10.23466195 2.60203894 6.375 2.375 C5.18648437 2.30023437 3.99796875 2.22546875 2.7734375 2.1484375 C1.85820312 2.09945313 0.94296875 2.05046875 0 2 C0 1.34 0 0.68 0 0 Z " fill="#DD8349" transform="translate(9,19)"/>
<path d="M0 0 C0.598125 0.20625 1.19625 0.4125 1.8125 0.625 C0.8225 1.12 0.8225 1.12 -0.1875 1.625 C0.4725 2.285 1.1325 2.945 1.8125 3.625 C0.1625 4.285 -1.4875 4.945 -3.1875 5.625 C-3.1875 4.635 -3.1875 3.645 -3.1875 2.625 C-3.8475 2.295 -4.5075 1.965 -5.1875 1.625 C-2.1875 -0.375 -2.1875 -0.375 0 0 Z " fill="#DD854B" transform="translate(9.1875,0.375)"/>
<path d="M0 0 C0 2.31 0 4.62 0 7 C-0.66 7 -1.32 7 -2 7 C-2.33 5.02 -2.66 3.04 -3 1 C-1 0 -1 0 0 0 Z " fill="#DB7635" transform="translate(44,12)"/>
</svg>
